<?xml version="1.0" standalone="no"?>
<!DOCTYPE svg PUBLIC "-//W3C//DTD SVG 20010904//EN"
 "http://www.w3.org/TR/2001/REC-SVG-20010904/DTD/svg10.dtd">
<svg version="1.0" xmlns="http://www.w3.org/2000/svg"
 width="2000.000000pt" height="2000.000000pt" viewBox="0 0 2000.000000 2000.000000"
 preserveAspectRatio="xMidYMid meet">

<g transform="translate(0.000000,2000.000000) scale(0.100000,-0.100000)"
fill="#000000" stroke="none">
<path d="M10300 19514 c-409 -27 -514 -37 -775 -75 -242 -35 -581 -106 -848
-179 -1101 -300 -2108 -849 -2972 -1621 -133 -119 -479 -467 -596 -599 -561
-634 -1012 -1365 -1330 -2159 -422 -1049 -600 -2266 -484 -3291 165 -1447 903
-3165 2186 -5090 1084 -1627 2701 -3563 4344 -5204 380 -379 441 -427 605
-478 110 -33 273 -31 385 5 157 52 176 67 625 517 558 557 879 895 1405 1480
1570 1744 2789 3378 3667 4915 832 1457 1319 2793 1432 3930 55 553 8 1302
-125 1960 -332 1655 -1234 3152 -2549 4231 -589 483 -1253 874 -1950 1149
-683 269 -1370 429 -2105 491 -167 14 -790 26 -915 18z m875 -1354 c1105 -113
2098 -489 2975 -1127 618 -449 1167 -1039 1572 -1688 494 -791 799 -1696 883
-2620 25 -285 35 -579 24 -770 -61 -1139 -576 -2463 -1592 -4100 -175 -281
-611 -931 -831 -1240 -928 -1297 -2199 -2799 -3426 -4048 l-165 -169 -220 224
c-441 448 -1152 1226 -1616 1768 -1523 1781 -2676 3446 -3370 4865 -160 328
-215 452 -337 756 -198 497 -329 945 -407 1389 -76 441 -90 925 -40 1400 189
1772 1158 3371 2648 4368 360 242 783 462 1183 617 486 188 1118 335 1619 375
72 5 148 12 170 14 84 8 825 -3 930 -14z"/>
<path d="M10320 15830 c-886 -84 -1645 -429 -2261 -1027 -646 -627 -1035
-1444 -1110 -2332 -15 -177 -7 -550 16 -741 68 -570 258 -1094 578 -1588 l79
-122 1021 0 1021 0 -85 41 c-373 180 -736 513 -962 879 -161 262 -279 596
-323 915 -23 170 -23 474 0 630 79 529 320 997 700 1362 445 428 1003 653
1621 653 428 0 826 -107 1181 -317 628 -372 1043 -998 1140 -1718 24 -180 24
-471 0 -630 -77 -513 -304 -965 -666 -1326 -186 -186 -414 -350 -630 -454
l-74 -35 817 0 c810 0 817 0 817 -20 0 -20 -7 -20 -864 -20 l-864 0 -84 -29
c-351 -123 -760 -161 -1128 -105 -122 18 -336 72 -433 108 l-68 26 -1050 -2
-1051 -3 38 -50 c139 -184 393 -448 574 -596 572 -469 1217 -740 1955 -824
186 -21 581 -21 770 0 351 39 664 115 969 237 855 341 1548 982 1951 1803 190
387 295 746 357 1220 16 127 16 576 -1 745 -104 1048 -629 1980 -1465 2604
-461 345 -1029 587 -1581 676 -253 41 -691 60 -905 40z"/>
</g>
</svg>
